<?xml version="1.0" encoding="UTF-8" standalone="no"?>
<svg
   xmlns:dc="http://purl.org/dc/elements/1.1/"
   xmlns:cc="http://creativecommons.org/ns#"
   xmlns:rdf="http://www.w3.org/1999/02/22-rdf-syntax-ns#"
   xmlns:svg="http://www.w3.org/2000/svg"
   xmlns="http://www.w3.org/2000/svg"
   xmlns:sodipodi="http://sodipodi.sourceforge.net/DTD/sodipodi-0.dtd"
   xmlns:inkscape="http://www.inkscape.org/namespaces/inkscape"
   version="1.1"
   id="Capa_1"
   x="0px"
   y="0px"
   viewBox="0 0 512 512"
   style="enable-background:new 0 0 512 512;"
   xml:space="preserve"
   width="512"
   height="512"
   sodipodi:docname="user.svg"
   inkscape:version="1.0 (4035a4fb49, 2020-05-01)"><metadata
   id="metadata13"><rdf:RDF><cc:Work
       rdf:about=""><dc:format>image/svg+xml</dc:format><dc:type
         rdf:resource="http://purl.org/dc/dcmitype/StillImage" /></cc:Work></rdf:RDF></metadata><defs
   id="defs11" /><sodipodi:namedview
   inkscape:document-rotation="0"
   pagecolor="#ffffff"
   bordercolor="#666666"
   borderopacity="1"
   objecttolerance="10"
   gridtolerance="10"
   guidetolerance="10"
   inkscape:pageopacity="0"
   inkscape:pageshadow="2"
   inkscape:window-width="1920"
   inkscape:window-height="991"
   id="namedview9"
   showgrid="false"
   inkscape:zoom="0.12688562"
   inkscape:cx="-2014.1703"
   inkscape:cy="-549.27893"
   inkscape:window-x="-9"
   inkscape:window-y="-9"
   inkscape:window-maximized="1"
   inkscape:current-layer="Capa_1" />
<g
   id="g6"
   style="fill:#fe3743;fill-opacity:1"
   transform="translate(220.67119,-2427.3831)"
   inkscape:export-filename="C:\Users\Lloyd\Desktop\Craftoza\LLoydV0.1\Micro_Webpage_Elements\icons\admin.png"
   inkscape:export-xdpi="96"
   inkscape:export-ydpi="96">
	<circle
   cx="256"
   cy="128"
   r="128"
   id="circle2"
   style="fill:#fe3743;fill-opacity:1" />
	<path
   d="m 256,298.667 c -105.99,0.118 -191.882,86.01 -192,192 C 64,502.449 73.551,512 85.333,512 h 341.333 c 11.782,0 21.333,-9.551 21.333,-21.333 C 447.882,384.677 361.99,298.784 256,298.667 Z"
   id="path4"
   style="fill:#fe3743;fill-opacity:1" />
</g>















<path
   id="path2"
   d="m 1111.2371,-2397.6927 a 256,256 0 1 0 256,256 256.27733,256.27733 0 0 0 -256,-256 z m 0,426.6666 a 21.333333,21.333333 0 1 1 21.3333,-21.3333 21.333333,21.333333 0 0 1 -21.3333,21.3333 z m 41.1733,-159.872 a 42.282666,42.282666 0 0 0 -19.84,37.3547 v 15.8507 a 21.333335,21.333335 0 0 1 -42.6667,0 v -15.8507 a 84.351999,84.351999 0 0 1 41.8987,-74.6667 42.666666,42.666666 0 0 0 21.3333,-45.3333 43.178666,43.178666 0 0 0 -34.1333,-34.0267 42.666666,42.666666 0 0 0 -50.432,41.8774 21.333335,21.333335 0 0 1 -42.6667,0 85.333332,85.333332 0 1 1 126.5067,74.7733 z"
   style="fill:#ffbf2c;fill-opacity:1;stroke-width:21.3333"
   inkscape:export-filename="C:\Users\Lloyd\Desktop\Craftoza\LLoydV0.1\Micro_Webpage_Elements\icons\help.png"
   inkscape:export-xdpi="96"
   inkscape:export-ydpi="96" /><circle
   id="circle2-0"
   r="42.666664"
   cy="-1971.7056"
   cx="-275.27094"
   style="fill:#2a83e5;fill-opacity:1;stroke-width:21.3333"
   inkscape:export-filename="C:\Users\Lloyd\Desktop\Craftoza\LLoydV0.1\Micro_Webpage_Elements\icons\cart.png"
   inkscape:export-xdpi="96"
   inkscape:export-ydpi="96" /><circle
   id="circle4"
   r="42.666664"
   cy="-1971.7056"
   cx="-61.937637"
   style="fill:#2a83e5;fill-opacity:1;stroke-width:21.3333"
   inkscape:export-filename="C:\Users\Lloyd\Desktop\Craftoza\LLoydV0.1\Micro_Webpage_Elements\icons\cart.png"
   inkscape:export-xdpi="96"
   inkscape:export-ydpi="96" /><path
   id="path6"
   d="m 62.07304,-2236.6015 a 128,128 0 0 1 -213.61066,-140.4373 h -182.57066 l -0.896,-7.5094 a 63.999999,63.999999 0 0 0 -63.53067,-56.4906 h -26.06933 v 42.6666 h 26.06933 a 21.333333,21.333333 0 0 1 21.184,18.8374 l 33.81333,287.3173 a 63.999999,63.999999 0 0 0 63.53067,56.512 H 2.0623701 v -42.6667 H -280.00695 a 21.333333,21.333333 0 0 1 -21.184,-18.8586 l -2.79467,-23.808 H 41.23037 Z"
   style="fill:#2a83e5;fill-opacity:1;stroke-width:21.3333"
   inkscape:export-filename="C:\Users\Lloyd\Desktop\Craftoza\LLoydV0.1\Micro_Webpage_Elements\icons\cart.png"
   inkscape:export-xdpi="96"
   inkscape:export-ydpi="96" /><path
   id="path8"
   d="m -59.56962,-2237.4762 h -0.704 a 39.935999,39.935999 0 0 1 -28.69333,-12.8 l -49.19467,-51.2 30.74134,-29.4826 47.87199,49.92 89.34399,-89.6 30.16534,30.1653 -91.05067,91.2 a 39.957333,39.957333 0 0 1 -28.47999,11.7973 z"
   style="fill:#00cd00;fill-opacity:1;stroke-width:21.3333"
   inkscape:export-filename="C:\Users\Lloyd\Desktop\Craftoza\LLoydV0.1\Micro_Webpage_Elements\icons\cart.png"
   inkscape:export-xdpi="96"
   inkscape:export-ydpi="96" /></svg>
